<svg width="51" height="51" viewBox="0 0 51 51" fill="none" xmlns="http://www.w3.org/2000/svg">
<path d="M13.1683 9.79284L9.66459 6.29095L8.44709 7.51025L11.949 11.0139L13.1683 9.79284ZM43.3673 7.4977L42.148 6.2784L38.621 9.8036L39.8403 11.0229L43.3673 7.4977ZM26.7616 1.3313H25.0385V6.50433H26.7616V1.3313ZM30.2097 28.0482H39.6933V29.7713H41.4236V24.6073H39.7005V26.3304H30.2097V24.6073H28.4865V29.7785H30.2097V28.0482ZM49.3347 48.7439L45.727 34.8421V21.1592H47.4519C47.909 21.1582 48.347 20.9761 48.67 20.6528C48.993 20.3294 49.1746 19.8912 49.1751 19.4342V16.8486C49.1746 16.3916 48.993 15.9534 48.67 15.63C48.347 15.3067 47.909 15.1246 47.4519 15.1237H4.34811C3.89109 15.1246 3.45308 15.3067 3.13008 15.63C2.80708 15.9534 2.62544 16.3916 2.62497 16.8486V19.4414C2.62544 19.8984 2.80708 20.3366 3.13008 20.66C3.45308 20.9833 3.89109 21.1654 4.34811 21.1663H6.07306V34.8493L2.5138 48.7439H0.900024V50.4617H50.9V48.7367L49.3347 48.7439ZM4.34811 19.4414V16.8486H47.4519V19.4414H4.34811ZM44.0021 21.1663V34.0962H7.79621V21.1592L44.0021 21.1663ZM9.49604 48.7439L11.3949 42.1938L9.7399 41.715L7.70117 48.7439H4.29432L7.61152 35.814H44.1975L47.5541 48.7439H9.49604ZM12.1068 28.0482H21.5886V29.7713H23.3135V24.6073H21.5886V26.3304H12.1068V24.6073H10.3818V29.7785H12.1068V28.0482Z" fill="#505050"/>
</svg>
