<svg width="52" height="48" viewBox="0 0 52 48" fill="none" xmlns="http://www.w3.org/2000/svg">
<g clip-path="url(#clip0_68_709)">
<path d="M29.3202 8.82329C29.4725 8.46003 29.5576 8.06205 29.5576 7.64428C29.5576 5.95815 28.186 4.58655 26.4999 4.58655C24.8138 4.58655 23.4422 5.95815 23.4422 7.64428C23.4422 8.06205 23.5274 8.45993 23.6795 8.82329C10.9524 10.2314 1.01917 21.0476 1.01917 34.1443C1.01917 34.7077 1.47552 35.1635 2.03837 35.1635H50.9614C51.5243 35.1635 51.9806 34.7077 51.9806 34.1443C51.9807 21.0476 42.0476 10.2316 29.3202 8.82329ZM26.5 6.62507C27.0618 6.62507 27.5192 7.08193 27.5192 7.64428C27.5192 8.20662 27.0618 8.66348 26.5 8.66348C25.9382 8.66348 25.4808 8.20662 25.4808 7.64428C25.4808 7.08193 25.9381 6.62507 26.5 6.62507ZM3.07951 33.125C3.61506 20.6703 13.9153 10.7019 26.4999 10.7019C39.0845 10.7019 49.3848 20.6702 49.9203 33.125H3.07951Z" fill="#505050"/>
<path d="M51.9808 37.2019H0V39.2403H51.9808V37.2019Z" fill="#505050"/>
</g>
<defs>
<clipPath id="clip0_68_709">
<rect width="51.9808" height="51.9808" fill="white" transform="translate(0 -4.0769)"/>
</clipPath>
</defs>
</svg>
