<svg width="51" height="51" viewBox="0 0 51 51" fill="none" xmlns="http://www.w3.org/2000/svg">
<path d="M43.0275 45.283H44.8122V43.5039H43.0275V45.283ZM13.5638 4.21034H11.7772V5.98949H13.5638V4.21034ZM10.8839 36.3539H9.09921V38.1404H10.8839V36.3539ZM9.99064 2.42562H8.20592V4.21034H9.99064V2.42562ZM44.8122 32.7826H43.0275V34.5673H44.8122V32.7826ZM43.9207 7.78164H42.1416V9.56822H43.9282L43.9207 7.78164ZM46.5987 43.5039H48.3853V41.7192H46.5987V43.5039ZM47.492 16.7182H45.7055V18.5048H47.492V16.7182ZM48.3853 34.5747H46.5987V36.3613H48.3853V34.5747ZM47.492 9.56822H45.7055V11.3529H47.492V9.56822ZM49.2768 13.1395H47.492V14.9261H49.2768V13.1395ZM9.99064 13.1395H8.20592V14.9261H9.99064V13.1395ZM15.3485 22.9601C15.3485 21.9832 15.4692 21.259 15.7199 20.7501L14.1154 19.9682C13.7439 20.7371 13.5582 21.688 13.5582 22.9601C13.5582 27.7887 15.2538 33.5124 16.6782 37.4626L18.3497 36.8572C17.2372 33.7334 15.3485 27.7738 15.3485 22.9601ZM1.95662 38.1404H3.74134V36.3539H1.95662V38.1404ZM39.4562 47.285C39.4537 46.338 39.0772 45.4302 38.4087 44.7593L36.9509 43.3015C38.0392 40.8203 42.1416 30.9533 42.1416 22.9601C42.1416 19.4668 41.0273 17.0971 38.5703 15.3458V13.1395C39.044 13.139 39.4981 12.9506 39.8331 12.6157C40.168 12.2808 40.3564 11.8266 40.3569 11.3529V9.56822C40.3559 9.09469 40.1673 8.64083 39.8325 8.306C39.4977 7.97116 39.0438 7.78262 38.5703 7.78164H36.8989C35.8017 5.88152 34.2237 4.30366 32.3234 3.20665C30.4232 2.10963 28.2677 1.5321 26.0735 1.5321C23.8794 1.5321 21.7239 2.10963 19.8237 3.20665C17.9234 4.30366 16.3454 5.88152 15.2482 7.78164H13.5768C13.1031 7.78213 12.649 7.97052 12.314 8.30546C11.9791 8.6404 11.7907 9.09454 11.7902 9.56822V11.3529C11.7902 11.8268 11.9784 12.2812 12.3135 12.6162C12.6485 12.9513 13.103 13.1395 13.5768 13.1395V15.3439C11.1105 17.0971 10.0036 19.4668 10.0036 22.9583C10.0036 30.944 14.1005 40.8184 15.1888 43.2996L13.7291 44.7575C13.0618 45.429 12.6861 46.3365 12.6835 47.2832V47.961H1.95662V49.7476H50.17V47.961H39.4562V47.285ZM26.0624 3.31891C27.7633 3.31533 29.4405 3.7179 30.9545 4.49314C32.4685 5.26839 33.7755 6.3939 34.7669 7.77607H17.358C18.3493 6.3939 19.6563 5.26839 21.1703 4.49314C22.6843 3.7179 24.3615 3.31533 26.0624 3.31891ZM13.5638 9.56822H38.5629V11.3529H13.5638V9.56822ZM36.7781 13.1395V14.9261H15.3485V13.1395H36.7781ZM11.7772 22.9601C11.7772 19.9701 12.6389 18.1408 14.7301 16.7108H37.3873C39.4784 18.1408 40.342 19.9701 40.342 22.9601C40.342 30.5373 36.312 40.2724 35.2961 42.6032H16.8212C15.8054 40.2724 11.7772 30.5447 11.7772 22.9601ZM37.6696 47.961H14.4552V47.285C14.4569 46.8116 14.645 46.3578 14.9789 46.0222L16.6114 44.3897H35.5153L37.1477 46.0222C37.4804 46.3585 37.6678 46.812 37.6696 47.285V47.961ZM1.95662 32.7826H0.170044V34.5673H1.95662V32.7826ZM41.2409 43.5039V41.7192H39.4562V43.5039H41.2409ZM48.3853 38.1479V39.9326H50.17V38.1479H48.3853ZM7.31264 38.1479H5.52792V39.9326H7.31264V38.1479ZM3.74134 29.2038H1.95662V30.9886H3.74134V29.2038ZM7.31264 27.4173H5.52792V29.2038H7.31264V27.4173ZM6.41935 11.3529H4.6272V13.1395H6.41192L6.41935 11.3529ZM4.6272 7.78164H2.84805V9.56822H4.6272V7.78164ZM6.41192 4.21034H4.6272V5.98949H6.41192V4.21034Z" fill="#505050"/>
</svg>
