<svg width="51" height="51" viewBox="0 0 51 51" fill="none" xmlns="http://www.w3.org/2000/svg">
<path d="M24.355 14.1483C24.0337 13.6242 23.8635 13.0215 23.8634 12.4067C23.8638 11.6618 24.1137 10.9386 24.5732 10.3524C25.0326 9.76616 25.6752 9.35071 26.3983 9.17232C27.1215 8.99393 27.8836 9.06288 28.563 9.36817C29.2423 9.67346 29.7999 10.1975 30.1467 10.8567L31.6217 10.0733C31.1707 9.22538 30.4851 8.52525 29.6467 8.05667C30.228 7.14448 31.0894 6.44538 32.1016 6.06427C33.1139 5.68315 34.2225 5.64058 35.261 5.94294C36.2996 6.2453 37.212 6.87627 37.8615 7.7412C38.5111 8.60613 38.8626 9.65835 38.8634 10.74H40.53C40.5272 9.9193 40.3747 9.10599 40.08 8.34C40.596 8.21845 41.1319 8.20768 41.6523 8.3084C42.1728 8.40911 42.666 8.61902 43.0993 8.92429C43.5327 9.22955 43.8965 9.62322 44.1666 10.0793C44.4367 10.5355 44.607 11.0437 44.6663 11.5704C44.7256 12.0972 44.6726 12.6306 44.5107 13.1354C44.3488 13.6401 44.0817 14.1048 43.7271 14.4988C43.3725 14.8928 42.9383 15.2072 42.4533 15.4211C41.9683 15.6351 41.4434 15.7437 40.9134 15.74H28.8634V17.4067H40.9467C42.3833 17.4067 43.761 16.836 44.7769 15.8202C45.7927 14.8043 46.3634 13.4266 46.3634 11.99C46.3634 10.5534 45.7927 9.17566 44.7769 8.15984C43.761 7.14402 42.3833 6.57333 40.9467 6.57333C40.3799 6.57355 39.8169 6.66644 39.28 6.84833C38.6257 5.93369 37.7506 5.19943 36.7362 4.71389C35.7218 4.22836 34.6011 4.00733 33.4783 4.07137C32.3556 4.13541 31.2672 4.48244 30.3146 5.08016C29.362 5.67789 28.5761 6.50688 28.03 7.49C27.7551 7.43853 27.4763 7.41065 27.1967 7.40667C25.8706 7.40667 24.5988 7.93345 23.6612 8.87113C22.7235 9.80882 22.1967 11.0806 22.1967 12.4067C22.1938 13.3274 22.4478 14.2307 22.93 15.015L24.355 14.1483ZM31.3634 41.5733H38.8634V39.9067H31.3634V41.5733ZM36.3634 37.4067H44.6967V35.74H36.3634V37.4067ZM46.3634 37.4067H48.03V35.74H46.3634V37.4067ZM32.0467 24.2983L27.2384 24.6733L27.3634 26.34L32.1967 25.965L32.0467 24.2983ZM35.53 25.74L35.405 24.0733L33.8634 24.1567L33.9884 25.8233L35.53 25.74ZM25.3634 24.8483L23.8634 24.9067L23.9884 26.5733L25.53 26.4733L25.3634 24.8483ZM48.8634 23.915L45.53 21.09C44.5494 20.2423 43.2732 19.8169 41.98 19.9067L31.0384 20.74L23.8634 16.79C23.6085 16.6482 23.3217 16.5736 23.03 16.5733H18.03C17.7036 16.5729 17.3843 16.6684 17.1116 16.8479C16.839 17.0274 16.6251 17.2829 16.4964 17.5829C16.3677 17.8829 16.3299 18.2141 16.3877 18.5353C16.4456 18.8565 16.5965 19.1537 16.8217 19.39L19.055 21.6817L10.0134 22.4067L6.60503 18.9733C6.13664 18.5044 5.50118 18.2406 4.83836 18.24H2.1967C1.75467 18.24 1.33075 18.4156 1.01818 18.7282C0.705624 19.0407 0.530029 19.4646 0.530029 19.9067C0.530029 22.8567 4.21336 27.965 6.71336 30.49C8.4467 32.2067 9.2467 32.4067 9.6967 32.4067H15.53V30.74H9.6967C8.3467 30.465 2.1967 22.99 2.1967 19.9067H4.83836C5.059 19.9097 5.27033 19.9961 5.43003 20.1483L9.38003 24.0733L42.105 21.5733C42.9651 21.5109 43.8152 21.7892 44.4717 22.3483L45.53 23.24L37.1967 23.9067L37.3217 25.5733L47.3217 24.8067L47.7634 25.1817C48.2543 25.6016 48.6046 26.162 48.7671 26.7873C48.9296 27.4126 48.8964 28.0726 48.6721 28.6785C48.4477 29.2843 48.043 29.8068 47.5124 30.1754C46.9819 30.544 46.3511 30.7411 45.705 30.74H32.1217L34.9884 28.365L33.93 27.0817L22.3217 36.6983C22.1315 36.7317 21.9446 36.7819 21.7634 36.8483C20.8771 35.6354 19.6094 34.7551 18.1634 34.3483L22.455 29.0733L21.155 27.99L16.2134 34.0733C15.0503 34.0975 13.9138 34.4255 12.9168 35.0249C11.9197 35.6243 11.0969 36.4741 10.53 37.49C10.2551 37.4385 9.97634 37.4107 9.6967 37.4067C8.37061 37.4067 7.09884 37.9335 6.16116 38.8711C5.22348 39.8088 4.6967 41.0806 4.6967 42.4067C4.6967 43.7328 5.22348 45.0045 6.16116 45.9422C7.09884 46.8799 8.37061 47.4067 9.6967 47.4067H23.4467C24.7568 47.4019 26.0208 46.9225 27.0045 46.0572C27.9882 45.1919 28.625 43.9995 28.7968 42.7007C28.9687 41.4019 28.6641 40.0848 27.9393 38.9935C27.2145 37.9021 26.1188 37.1104 24.855 36.765L30.1134 32.4067H45.705C46.6932 32.4112 47.6589 32.1122 48.4717 31.5501C49.2844 30.988 49.905 30.1899 50.2495 29.2637C50.594 28.3375 50.6458 27.3279 50.3979 26.3713C50.15 25.4147 49.6143 24.5573 48.8634 23.915ZM21.2217 21.515L18.03 18.24H23.03L28.03 20.99L21.2217 21.515ZM27.1967 41.99C27.1945 42.9839 26.7987 43.9364 26.0959 44.6392C25.3931 45.342 24.4406 45.7378 23.4467 45.74H9.6967C9.10588 45.7402 8.52563 45.5833 8.01538 45.2855C7.50512 44.9877 7.08318 44.5596 6.79278 44.0451C6.50238 43.5306 6.35395 42.9481 6.36269 42.3574C6.37143 41.7666 6.53703 41.1888 6.84252 40.6831C7.14801 40.1774 7.58242 39.762 8.10127 39.4794C8.62011 39.1968 9.20475 39.0572 9.7953 39.0748C10.3858 39.0925 10.9611 39.2668 11.4621 39.5799C11.9632 39.893 12.372 40.3336 12.6467 40.8567L14.1217 40.0733C13.673 39.2237 12.9868 38.523 12.1467 38.0567C12.728 37.1445 13.5894 36.4454 14.6016 36.0643C15.6139 35.6832 16.7225 35.6406 17.761 35.9429C18.7996 36.2453 19.712 36.8763 20.3615 37.7412C21.0111 38.6061 21.3626 39.6584 21.3634 40.74H23.03C23.0272 39.9193 22.8747 39.106 22.58 38.34C23.1308 38.2108 23.7037 38.2076 24.2559 38.3307C24.8082 38.4538 25.3255 38.6999 25.7693 39.0508C26.2131 39.4017 26.572 39.8482 26.8191 40.3572C27.0663 40.8661 27.1953 41.4242 27.1967 41.99Z" fill="#505050"/>
</svg>
