<svg width="51" height="51" viewBox="0 0 51 51" fill="none" xmlns="http://www.w3.org/2000/svg">
<path d="M21.723 47.8137H23.3905V46.1462H21.723V47.8137ZM15.0566 3.64636H13.3908V5.31384H15.0566V3.64636ZM44.2235 8.64706H33.3901V10.3128H44.2235V8.64706ZM25.0562 3.64636H16.724V5.31384H25.0562V3.64636ZM31.7227 8.64706H30.0569V10.3128H31.7227V8.64706ZM42.556 40.3135H44.2235V38.646H42.556V40.3135ZM20.7523 35.3128L22.5862 25.2265L20.6206 20.3125H15.3252L13.37 25.2265L15.2022 35.3128H20.7523ZM16.4536 21.9799H19.4922L20.8615 25.3998L19.3605 33.6471H16.5871L15.086 25.3998L16.4536 21.9799ZM50.8899 40.3135V30.3624C50.8893 29.6994 50.7308 29.0461 50.4276 28.4565C50.1244 27.867 49.6851 27.3581 49.1462 26.972L44.8909 23.9265L41.7032 16.922C41.3716 16.1943 40.8379 15.5771 40.1655 15.1442C39.4931 14.7112 38.7104 14.4805 37.9107 14.4798H7.92386L0.889954 25.9111V40.3135H4.30637C4.43054 40.9176 4.6875 41.4866 5.05864 41.9792H0.889954V43.6467H50.8899V41.9792H46.7299C47.1011 41.4866 47.358 40.9176 47.4822 40.3135H50.8899ZM47.2499 27.7884L47.3279 27.726L48.1721 28.3274C48.4877 28.5551 48.7461 28.8531 48.9266 29.1979C49.1071 29.5426 49.2048 29.9247 49.2121 30.3138H48.1409C47.847 30.3139 47.5603 30.2227 47.3205 30.0528C47.0807 29.8828 46.8996 29.6426 46.8024 29.3652C46.7051 29.0879 46.6964 28.7871 46.7775 28.5047C46.8586 28.2222 47.0255 27.9718 47.2551 27.7884H47.2499ZM33.3832 19.4804H37.4444L39.6319 24.4794H33.3901L33.3832 19.4804ZM8.39013 41.9792C7.89578 41.9792 7.41253 41.8326 7.00149 41.558C6.59045 41.2833 6.27009 40.893 6.08091 40.4363C5.89173 39.9795 5.84223 39.477 5.93867 38.9921C6.03512 38.5073 6.27317 38.0619 6.62273 37.7124C6.97229 37.3628 7.41765 37.1247 7.9025 37.0283C8.38735 36.9319 8.88992 36.9814 9.34664 37.1705C9.80336 37.3597 10.1937 37.6801 10.4684 38.0911C10.743 38.5022 10.8896 38.9854 10.8896 39.4798C10.8887 40.1424 10.6251 40.7776 10.1565 41.2461C9.68797 41.7147 9.05275 41.9783 8.39013 41.9792ZM8.39013 35.3128C7.42997 35.3142 6.49963 35.6464 5.75579 36.2535C5.01195 36.8607 4.50008 37.7056 4.30637 38.646H2.55743V26.3826L8.86333 16.1472H31.7227V38.646H12.4721C12.2791 37.7056 11.7676 36.8605 11.024 36.2533C10.2804 35.6461 9.35016 35.3139 8.39013 35.3128ZM11.7216 41.9792C12.0927 41.4868 12.3492 40.9177 12.4721 40.3135H39.3078C39.4306 40.9181 39.6877 41.4873 40.06 41.9792H11.7216ZM43.3898 41.9792C42.8955 41.9789 42.4124 41.832 42.0016 41.5572C41.5908 41.2823 41.2707 40.8918 41.0818 40.4351C40.8929 39.9783 40.8436 39.4758 40.9403 38.9911C41.0369 38.5063 41.2751 38.0611 41.6247 37.7117C41.9744 37.3624 42.4197 37.1245 42.9045 37.0282C43.3893 36.9319 43.8918 36.9815 44.3484 37.1707C44.805 37.3599 45.1953 37.6803 45.4699 38.0913C45.7444 38.5023 45.891 38.9855 45.891 39.4798C45.8901 40.1427 45.6262 40.7782 45.1573 41.2467C44.6884 41.7153 44.0527 41.9788 43.3898 41.9792ZM43.3898 35.3128C42.4298 35.3139 41.4995 35.6461 40.7559 36.2533C40.0123 36.8605 39.5008 37.7056 39.3078 38.646H33.3901V26.1469H42.1868L38.5468 17.813H33.3901V16.1472H37.9107C38.3905 16.1477 38.86 16.286 39.2635 16.5457C39.6669 16.8054 39.9873 17.1754 40.1866 17.6119L43.5579 25.0289L45.943 26.731C45.5168 27.1644 45.2282 27.7141 45.1133 28.3109C44.9983 28.9078 45.0623 29.5253 45.2971 30.086C45.5319 30.6466 45.927 31.1255 46.4329 31.4623C46.9389 31.7992 47.533 31.9792 48.1409 31.9796H49.2242V38.646H47.4735C47.2798 37.7056 46.768 36.8607 46.0241 36.2535C45.2803 35.6464 44.3499 35.3142 43.3898 35.3128ZM7.55639 40.3135H9.22386V38.646H7.55639V40.3135ZM25.0632 47.8137H39.2298V46.1462H25.0562L25.0632 47.8137Z" fill="#505050"/>
</svg>
