<svg width="51" height="51" viewBox="0 0 51 51" fill="none" xmlns="http://www.w3.org/2000/svg">
<path d="M34.613 12.5111H38.3899V10.6217H34.613V12.5111ZM36.7263 5.12248L35.3908 3.78695L32.4998 6.67995L33.8353 8.01352L36.7263 5.12248ZM41.222 35.172H29.8915V33.2846H28.0022V38.9488H29.8915V37.0614H41.218V38.9488H43.1074V33.2846H41.218L41.222 35.172ZM20.4485 35.172H9.11812V33.2846H7.24051V38.9488H9.12794V37.0614H20.4584V38.9488H22.3477V33.2846H20.4584L20.4485 35.172ZM0.170044 48.3918H50.17L47.8329 42.5449V30.4505C48.3333 30.45 48.813 30.2509 49.1669 29.8971C49.5207 29.5432 49.7198 29.0635 49.7203 28.563V25.729C49.7198 25.2286 49.5207 24.7488 49.1669 24.3949C48.813 24.0411 48.3333 23.8421 47.8329 23.8415H47.7955C47.7641 23.4134 47.715 22.9754 47.6443 22.5276C47.0806 18.9767 43.8832 16.2879 40.2046 16.2879H26.1147V3.06812H1.5645V24.0969C1.27788 24.2623 1.03976 24.5002 0.873972 24.7866C0.70818 25.0731 0.620533 25.398 0.619804 25.729V28.563C0.620844 29.0636 0.8203 29.5434 1.17446 29.8972C1.52862 30.251 2.00859 30.45 2.50919 30.4505V42.5449L0.170044 48.3918ZM2.95895 46.5024L4.09808 43.6703H46.2479L47.3811 46.5024H2.95895ZM4.39661 41.7888V30.4564H45.9435V41.7888H4.39661ZM26.1147 18.1754H40.2046C42.9542 18.1754 45.3602 20.1728 45.7805 22.8222C45.8335 23.1699 45.8747 23.5116 45.9022 23.8415H26.1147V18.1754ZM3.45192 6.29107L5.34131 8.17457V15.3432H7.24051V8.73431H22.3477V6.84492H6.67684L4.78745 4.9575H24.2312V18.1754H16.6678C16.1321 18.1766 15.6027 18.2919 15.1151 18.5138C14.6274 18.7356 14.1926 19.0588 13.8396 19.4618C13.4862 19.0583 13.0508 18.7348 12.5624 18.5129C12.074 18.2911 11.5439 18.176 11.0075 18.1754H9.11812C8.4547 18.1743 7.80274 18.3482 7.22804 18.6797C6.65335 19.0111 6.17627 19.4883 5.84496 20.0631C5.51365 20.6378 5.33983 21.2898 5.34106 21.9532C5.34229 22.6167 5.51851 23.268 5.85195 23.8415H3.45192V6.29107ZM24.2254 20.0647V23.8415H14.2737C14.6078 23.2679 14.784 22.616 14.7843 21.9522C14.7848 21.4524 14.9833 20.9732 15.3363 20.6195C15.6893 20.2658 16.1681 20.0663 16.6678 20.0647H24.2254ZM12.8949 21.9522C12.8944 22.4528 12.6954 22.9327 12.3417 23.2869C11.9879 23.6411 11.5081 23.8405 11.0075 23.8415H9.11812C8.62782 23.8257 8.1629 23.6198 7.82166 23.2674C7.48043 22.915 7.28964 22.4437 7.28964 21.9531C7.28964 21.4626 7.48043 20.9913 7.82166 20.6389C8.1629 20.2864 8.62782 20.0806 9.11812 20.0647H11.0075C11.5079 20.0653 11.9877 20.2643 12.3415 20.6181C12.6954 20.972 12.8944 21.4517 12.8949 21.9522ZM2.50919 25.729H47.8329V28.563H2.50919V25.729Z" fill="#505050"/>
</svg>
