<svg width="16" height="17" viewBox="0 0 16 17" fill="none" xmlns="http://www.w3.org/2000/svg">
<path d="M4.9304 13.5754L5.1384 13.6978C6.01344 14.2136 7.01065 14.4857 8.0264 14.4858H8.0288C11.1568 14.4858 13.7024 11.9514 13.704 8.83702C13.704 7.32742 13.1144 5.90902 12.0432 4.84102C11.5165 4.31411 10.8908 3.89654 10.2022 3.61234C9.51348 3.32814 8.77541 3.18292 8.0304 3.18502C4.9 3.18502 2.3544 5.71782 2.3528 8.83302C2.3528 9.89942 2.6528 10.9394 3.2208 11.8386L3.356 12.0522L2.7824 14.1362L4.9304 13.5754ZM1.1432 15.7514L2.1112 12.2298C1.51296 11.1975 1.19859 10.0253 1.2 8.83222C1.2016 5.08502 4.264 2.03702 8.0288 2.03702C8.92553 2.03416 9.81396 2.20869 10.643 2.55056C11.472 2.89243 12.2252 3.39489 12.8592 4.02902C13.4943 4.65794 13.9981 5.40692 14.341 6.23235C14.6839 7.05778 14.8593 7.94318 14.8568 8.83702C14.8552 12.5842 11.792 15.633 8.0288 15.633H8.0256C6.88625 15.633 5.76491 15.3487 4.7632 14.8058L1.1432 15.7506V15.7514Z" fill="#474747"/>
<path fill-rule="evenodd" clip-rule="evenodd" d="M6.3216 5.99218C6.1936 5.70978 6.0592 5.70418 5.9376 5.69858C5.8384 5.69458 5.7248 5.69538 5.6112 5.69538C5.52483 5.6975 5.43982 5.71742 5.36149 5.7539C5.28317 5.79038 5.21321 5.84263 5.156 5.90738C5 6.07778 4.5592 6.48818 4.5592 7.32338C4.5592 8.16018 5.1704 8.96738 5.2552 9.08098C5.3408 9.19378 6.436 10.9642 8.1704 11.645C9.6112 12.2106 9.9048 12.0978 10.2176 12.069C10.5296 12.041 11.2272 11.6586 11.3696 11.2626C11.5112 10.8658 11.5112 10.5258 11.4688 10.4546C11.4256 10.3842 11.312 10.341 11.1408 10.2562C10.9704 10.1714 10.132 9.76018 9.976 9.70418C9.8192 9.64738 9.7056 9.61858 9.592 9.78898C9.4776 9.95858 9.1512 10.341 9.052 10.4546C8.952 10.5682 8.852 10.5826 8.6816 10.497C8.5112 10.4122 7.9616 10.233 7.3096 9.65458C6.8024 9.20418 6.46 8.64818 6.3608 8.47858C6.2608 8.30818 6.3504 8.21618 6.4352 8.13138C6.512 8.05538 6.6064 7.93298 6.6912 7.83378C6.7768 7.73458 6.8048 7.66418 6.8616 7.55058C6.9192 7.43778 6.8904 7.33858 6.848 7.25298C6.8048 7.16818 6.4736 6.32818 6.3216 5.99218Z" fill="#474747"/>
</svg>
