<svg width="16" height="17" viewBox="0 0 16 17" fill="none" xmlns="http://www.w3.org/2000/svg">
<path d="M8.53511 14.2271C3.18133 14.2271 0.127111 10.556 0 4.44934H2.68178C2.77067 8.93201 4.74667 10.8316 6.31289 11.2227V4.44934H8.83733V8.31601C10.384 8.1489 12.0098 6.38712 12.5573 4.44934H15.0827C14.876 5.45433 14.4643 6.40588 13.8731 7.24449C13.282 8.0831 12.5242 8.79072 11.6471 9.32312C12.6265 9.80953 13.4915 10.4981 14.1852 11.3435C14.8788 12.1888 15.3853 13.1716 15.6711 14.2271H12.8889C12.6322 13.3108 12.1109 12.4905 11.3902 11.8691C10.6695 11.2477 9.78146 10.8528 8.83733 10.7338V14.2271H8.53422H8.53511Z" fill="#474747"/>
</svg>
