<svg width="16" height="17" viewBox="0 0 16 17" fill="none" xmlns="http://www.w3.org/2000/svg">
<path d="M0.614395 8.80099C1.95839 8.06259 3.4592 7.44579 4.8624 6.82659C7.2744 5.81059 9.69679 4.81379 12.1432 3.88499C12.6192 3.72659 13.4744 3.57299 13.5584 4.27619C13.5128 5.27219 13.3232 6.26179 13.1936 7.25219C12.8656 9.42979 12.4848 11.5994 12.1136 13.7698C11.9864 14.493 11.0784 14.8674 10.4976 14.4042C9.10159 13.4642 7.6944 12.5322 6.31679 11.5698C5.8648 11.1122 6.284 10.4554 6.6872 10.1282C7.8368 8.99779 9.05599 8.03779 10.1456 6.84899C10.44 6.14099 9.57119 6.73699 9.28479 6.92099C7.71039 8.00179 6.176 9.14979 4.5152 10.1018C3.6672 10.5674 2.67919 10.169 1.83199 9.90979C1.07199 9.59539 -0.040805 9.27939 0.614395 8.80099Z" fill="#474747"/>
</svg>
