<svg width="16" height="17" viewBox="0 0 16 17" fill="none" xmlns="http://www.w3.org/2000/svg">
<path fill-rule="evenodd" clip-rule="evenodd" d="M11.396 2.92417C12.1367 3.13511 12.8145 3.5241 13.3704 4.0572C13.9262 4.5903 14.3431 5.25131 14.5848 5.98257C14.9677 7.81925 14.9467 9.71722 14.5232 11.545C14.2816 12.2764 13.8648 12.9375 13.3089 13.4708C12.7531 14.004 12.0752 14.3931 11.3344 14.6042C10.2337 14.8142 9.11574 14.9202 7.9952 14.921H7.0112L5.4968 16.481C5.41342 16.5671 5.30629 16.6265 5.18904 16.6516C5.07179 16.6767 4.94973 16.6663 4.8384 16.6218C4.7274 16.5775 4.63217 16.501 4.56489 16.4023C4.49762 16.3035 4.46137 16.1869 4.4608 16.0674V14.5778C3.75873 14.3443 3.12086 13.9501 2.59796 13.4266C2.07506 12.9032 1.68156 12.2649 1.4488 11.5626C1.04042 9.71905 1.04042 7.80849 1.4488 5.96497C1.70042 5.22774 2.13059 4.56424 2.70095 4.03366C3.27131 3.50308 3.96413 3.12192 4.7176 2.92417C6.9238 2.50282 9.18981 2.50282 11.396 2.92417ZM11.1392 13.4226C11.6534 13.2595 12.1234 12.9809 12.5133 12.6082C12.9032 12.2354 13.2027 11.7784 13.3888 11.2722V11.3162C13.7543 9.64901 13.7515 7.92217 13.3808 6.25617C13.1947 5.74966 12.8952 5.29245 12.5051 4.91958C12.115 4.54671 11.6448 4.26806 11.1304 4.10497C9.0821 3.71535 6.9787 3.71535 4.9304 4.10497C4.41602 4.26806 3.94578 4.54671 3.55572 4.91958C3.16565 5.29245 2.8661 5.74966 2.68 6.25617C2.31215 7.92278 2.31215 9.64956 2.68 11.3162C2.86612 11.8224 3.16559 12.2794 3.55551 12.6522C3.94543 13.0249 4.41545 13.3035 4.9296 13.4666C4.94876 13.4701 4.96623 13.4798 4.97926 13.4943C4.99229 13.5088 5.00014 13.5271 5.0016 13.5466V16.0058C5.00302 16.0328 5.01213 16.0589 5.02785 16.081C5.04358 16.103 5.06527 16.1201 5.09039 16.1303C5.1155 16.1405 5.14299 16.1433 5.16963 16.1383C5.19628 16.1334 5.22096 16.121 5.2408 16.1026L6.4184 14.9034L7.5344 13.705C7.54416 13.7009 7.55463 13.6988 7.5652 13.6988C7.57577 13.6988 7.58624 13.7009 7.596 13.705C8.784 13.737 9.972 13.6434 11.1392 13.4226ZM11.0328 10.8842C10.8484 10.7303 10.6561 10.5861 10.4568 10.4522L10.3208 10.357C10.1648 10.2482 10.0112 10.1402 9.8464 10.037C9.75292 9.96761 9.6396 9.93016 9.5232 9.93016C9.4068 9.93016 9.29348 9.96761 9.2 10.037C9.1304 10.0938 9.0736 10.169 9.0168 10.2442C8.9128 10.3802 8.8096 10.517 8.6328 10.5402C8.4712 10.5442 8.3128 10.505 8.172 10.4258C7.75163 10.2416 7.37586 9.96911 7.07022 9.62676C6.76459 9.28441 6.53627 8.88025 6.4008 8.44177C6.3736 8.38709 6.35945 8.32684 6.35945 8.26577C6.35945 8.20469 6.3736 8.14445 6.4008 8.08977C6.4391 8.03195 6.48699 7.98108 6.5424 7.93937L6.728 7.79857C6.84985 7.71502 6.93458 7.58751 6.96442 7.44282C6.99425 7.29812 6.96686 7.1475 6.888 7.02257C6.6355 6.59325 6.33868 6.19158 6.0024 5.82417C5.93999 5.73966 5.84963 5.68002 5.74739 5.65585C5.64515 5.63168 5.53765 5.64455 5.444 5.69217C5.17958 5.81495 4.94405 5.99214 4.7528 6.21217C4.5048 6.43297 4.4024 6.77297 4.4872 7.09377C4.6288 7.43777 4.7712 7.78177 4.9304 8.11617C5.2681 8.82341 5.70002 9.48166 6.2144 10.073C7.14769 11.0663 8.29632 11.8323 9.572 12.3122C9.6488 12.3442 9.7296 12.3682 9.8112 12.3906C9.8608 12.4042 9.9112 12.4186 9.9616 12.4354C10.0832 12.4082 10.2016 12.3698 10.316 12.321C10.6793 12.1246 10.9686 11.8151 11.14 11.4394C11.1887 11.3486 11.2046 11.2438 11.1851 11.1427C11.1655 11.0416 11.1118 10.9503 11.0328 10.8842ZM7.9416 5.28577H8.0392C8.82537 5.28597 9.58674 5.561 10.1916 6.06326C10.7964 6.56552 11.2066 7.26341 11.3512 8.03617C11.4408 8.35297 11.4408 8.63537 11.4408 8.91777C11.4461 8.94539 11.4452 8.97383 11.4383 9.00109C11.4314 9.02835 11.4186 9.05377 11.4009 9.07557C11.3831 9.09737 11.3608 9.11502 11.3355 9.12728C11.3102 9.13955 11.2825 9.14613 11.2544 9.14657H11.2408C11.1176 9.14657 11.068 9.14657 11.0504 8.91777C11.0433 8.82692 11.0342 8.73623 11.0232 8.64577C11.0056 8.49937 10.9888 8.35457 10.9888 8.21217C10.8965 7.60302 10.6165 7.03784 10.1877 6.59544C9.75891 6.15303 9.20277 5.85544 8.5968 5.74417C8.4784 5.70257 8.3232 5.69697 8.1968 5.69217C8.1344 5.68977 8.08 5.68817 8.0392 5.68257C8.02323 5.68025 8.00722 5.67812 7.9912 5.67617C7.8744 5.66257 7.7376 5.64657 7.7376 5.51457C7.7338 5.48573 7.73627 5.4564 7.74482 5.4286C7.75338 5.40079 7.76783 5.37516 7.7872 5.35344C7.80656 5.33173 7.83037 5.31444 7.85702 5.30277C7.88366 5.29109 7.91251 5.28529 7.9416 5.28577ZM10.1736 8.51217C10.1652 8.56463 10.1652 8.61811 10.1736 8.67057C10.1854 8.70836 10.2089 8.74139 10.2408 8.76485C10.2727 8.78831 10.3112 8.80096 10.3508 8.80096C10.3904 8.80096 10.4289 8.78831 10.4608 8.76485C10.4927 8.74139 10.5162 8.70836 10.528 8.67057C10.5309 8.63249 10.5309 8.59425 10.528 8.55617V8.16817C10.4856 7.80753 10.3541 7.46312 10.1453 7.16605C9.93649 6.86897 9.65698 6.62857 9.332 6.46657C8.99356 6.29469 8.62174 6.1986 8.2424 6.18497C8.21784 6.18263 8.19306 6.18544 8.16965 6.19322C8.14623 6.20099 8.12469 6.21356 8.1064 6.23011C8.08811 6.24667 8.07347 6.26686 8.06342 6.28939C8.05336 6.31192 8.04811 6.3363 8.048 6.36097C8.04413 6.38559 8.04554 6.41076 8.05213 6.4348C8.05872 6.45884 8.07034 6.4812 8.08623 6.50041C8.10211 6.51962 8.12189 6.53524 8.14426 6.54623C8.16664 6.55722 8.19109 6.56334 8.216 6.56417L8.5352 6.61697C8.7528 6.65057 8.9648 6.71617 9.164 6.81057C9.4928 6.97297 9.7672 7.22657 9.952 7.54257C10.1072 7.84177 10.1832 8.17457 10.1736 8.51217ZM9.3464 7.41137C9.5608 7.62657 9.68 7.91777 9.6776 8.22097C9.6856 8.27377 9.6856 8.32737 9.6776 8.37937C9.66721 8.41918 9.64258 8.45379 9.60837 8.47665C9.57416 8.4995 9.53275 8.50901 9.492 8.50337C9.46457 8.50444 9.43721 8.49999 9.41154 8.49028C9.38587 8.48057 9.36241 8.4658 9.34256 8.44684C9.32271 8.42789 9.30687 8.40514 9.29599 8.37994C9.2851 8.35474 9.27939 8.32762 9.2792 8.30017C9.2848 8.21217 9.2848 8.12417 9.2792 8.03617C9.24202 7.86412 9.14474 7.71095 9.0048 7.60417C8.93755 7.5565 8.86258 7.52078 8.7832 7.49857C8.6768 7.45377 8.5704 7.45377 8.4736 7.45377C8.44908 7.44955 8.42566 7.44046 8.40471 7.42704C8.38376 7.41363 8.3657 7.39615 8.35161 7.37565C8.33752 7.35515 8.32768 7.33203 8.32266 7.30766C8.31764 7.2833 8.31755 7.25817 8.3224 7.23377C8.33316 7.18633 8.36052 7.1443 8.39954 7.11526C8.43856 7.08621 8.48667 7.07207 8.5352 7.07537C8.8392 7.07537 9.132 7.19537 9.3464 7.41137Z" fill="#474747"/>
</svg>
