<svg width="12" height="13" viewBox="0 0 12 13" fill="none" xmlns="http://www.w3.org/2000/svg">
<g clip-path="url(#clip0_58_434)">
<path d="M5.99988 0.5C3.58082 0.5 1.61279 2.50339 1.61279 4.96591C1.61279 6.34333 2.30945 8.0152 3.68348 9.93507C4.68899 11.3401 5.67984 12.3421 5.72154 12.3841C5.79818 12.4613 5.899 12.5 5.99995 12.5C6.09797 12.5 6.19605 12.4635 6.27208 12.3902C6.31387 12.35 7.30723 11.3885 8.31464 10.0029C9.68977 8.11146 10.387 6.41679 10.387 4.96588C10.387 2.50339 8.41889 0.5 5.99988 0.5ZM6.00522 11.5425C5.12149 10.5837 2.39748 7.4283 2.39748 4.96591C2.39748 2.93607 4.0135 1.28467 5.99988 1.28467C7.98626 1.28467 9.60228 2.93605 9.60228 4.96591C9.60228 7.56108 6.89283 10.6126 6.00522 11.5425Z" fill="#919191"/>
<path d="M6.00002 2.60431C4.81736 2.60431 3.85522 3.56647 3.85522 4.7491C3.85522 5.93174 4.81738 6.8939 6.00002 6.8939C7.18265 6.8939 8.14481 5.93174 8.14481 4.7491C8.14481 3.56647 7.18263 2.60431 6.00002 2.60431ZM6.00002 6.10923C5.25004 6.10923 4.63989 5.49908 4.63989 4.7491C4.63989 3.99912 5.25004 3.38897 6.00002 3.38897C6.75 3.38897 7.36015 3.99912 7.36015 4.7491C7.36015 5.49908 6.74997 6.10923 6.00002 6.10923Z" fill="#919191"/>
</g>
<defs>
<clipPath id="clip0_58_434">
<rect width="12" height="12" fill="white" transform="translate(0 0.5)"/>
</clipPath>
</defs>
</svg>
