<svg width="45" height="45" viewBox="0 0 45 45" fill="none" xmlns="http://www.w3.org/2000/svg">
<path d="M41.9492 12.8633H19.0678V25.0667H41.9492V12.8633ZM40.4237 23.5412H20.5932V14.3887H40.4237V23.5412ZM38.8983 28.1175V26.5921H37.3729V28.1175H38.8983ZM32.7966 28.1175V26.5921H31.2712V28.1175H32.7966ZM35.8475 28.1175V26.5921H34.322V28.1175H35.8475ZM41.9492 28.1175V26.5921H40.4237V28.1175H41.9492ZM17.0847 11.3836L18.6102 10.7124L18 9.31665L16.4746 9.98783L17.0847 11.3836ZM38.1356 20.8031V17.1268L36.9229 15.9141H32.7966V17.4395H36.2975L36.6102 17.7522V20.1777L36.2975 20.4904H32.7966V22.0158H36.9229L38.1356 20.8031ZM43.4746 14.3887V15.9141H45V14.3887H43.4746ZM28.2203 22.0158V20.4904H24.7195L24.4068 20.1777V17.7522L24.7195 17.4395H28.2203V15.9141H24.0941L22.8814 17.1268V20.8031L24.0941 22.0158H28.2203ZM30.5085 20.4904C30.8102 20.4904 31.1051 20.4009 31.356 20.2333C31.6068 20.0657 31.8023 19.8274 31.9178 19.5487C32.0332 19.27 32.0634 18.9633 32.0046 18.6674C31.9457 18.3715 31.8004 18.0997 31.5871 17.8863C31.3738 17.673 31.102 17.5277 30.8061 17.4688C30.5102 17.41 30.2035 17.4402 29.9247 17.5556C29.646 17.6711 29.4077 17.8666 29.2401 18.1175C29.0725 18.3683 28.9831 18.6633 28.9831 18.965C28.9831 19.3695 29.1438 19.7575 29.4298 20.0436C29.7159 20.3297 30.1039 20.4904 30.5085 20.4904ZM10.289 14.3887L15.628 11.9938L15.0025 10.5751L9.66356 12.97L10.289 14.3887ZM43.4746 28.1175H45V26.5921H43.4746V28.1175ZM43.4746 25.0667H45V23.5412H43.4746V25.0667ZM40.7364 29.3531L39.3864 30.07L40.5534 32.259L32.7966 35.4472L31.4085 33.9217C31.2371 33.728 31.0192 33.581 30.7754 33.4946L14.9034 27.8811L7.12373 13.2446C6.79983 12.6755 6.33153 12.202 5.7661 11.8717L23.5525 4.64122C24.0744 4.43412 24.6543 4.42615 25.1817 4.61883C25.7091 4.8115 26.1472 5.19138 26.4127 5.68614L29.6008 11.6582L30.9432 10.9412L27.7551 4.96156C27.4304 4.35518 26.9478 3.84788 26.3584 3.49341C25.7689 3.13894 25.0946 2.95048 24.4068 2.948C23.9149 2.94719 23.4277 3.04308 22.9729 3.23021L2.37966 11.62C1.67678 11.9052 1.07493 12.3936 0.651033 13.0226C0.22714 13.6517 0.000470099 14.3929 0 15.1514C0.00192867 15.7583 0.145574 16.3564 0.419492 16.898L2.05932 19.9489L7.55085 17.287L12.7754 27.126L5.04915 24.3878C4.89725 24.3339 4.73745 24.3055 4.57627 24.3039C4.27294 24.3046 3.97668 24.3956 3.72534 24.5654C3.474 24.7352 3.279 24.9761 3.16525 25.2573L1.63983 29.0709C1.56717 29.253 1.52839 29.4469 1.52542 29.6429C1.52769 29.956 1.62625 30.2609 1.80773 30.516C1.9892 30.7712 2.24481 30.9643 2.53983 31.0692L4.62203 31.8319C4.67025 32.0032 4.75724 32.1611 4.87628 32.2933C4.99531 32.4256 5.1432 32.5287 5.30847 32.5946L18.1297 37.1938L20.7076 42.0522L25.8102 39.97L28.922 41.0836L34.0093 40.0921L33.7119 39.5887L34.1314 39.5277C34.3949 39.4817 34.6341 39.3454 34.8081 39.1422C34.9821 38.939 35.0799 38.6816 35.0847 38.4141C35.0824 38.1334 34.9796 37.8628 34.7949 37.6514L33.8797 36.6446L42.7119 33.0294L40.7364 29.3531ZM2.70763 17.9124L1.76949 16.1658C1.6111 15.851 1.52757 15.5038 1.52542 15.1514C1.52223 14.6936 1.65644 14.2454 1.91071 13.8646C2.16497 13.4839 2.52759 13.1882 2.95169 13.0158C3.22649 12.91 3.51913 12.8582 3.81356 12.8633C4.21208 12.8566 4.60519 12.9562 4.95241 13.1519C5.29962 13.3477 5.58839 13.6324 5.78898 13.9768L6.86441 15.9141L2.70763 17.9124ZM6.16271 27.3548L4.96525 30.3217L3.05085 29.6429L4.57627 25.8294L6.86441 26.6455C6.70005 26.7004 6.55091 26.7933 6.42902 26.9165C6.30714 27.0397 6.21591 27.1898 6.16271 27.3548ZM21.417 40.1455L20.2805 37.9946L23.6441 39.1921L21.417 40.1455ZM28.8763 38.7955L7.77966 31.3209L8.80932 28.72L29.9975 36.3472L31.2712 38.437L28.8763 38.7955ZM32.8653 38.1853L32.1864 37.0565L33.1703 38.1395L32.8653 38.1853ZM29.7458 28.1175V26.5921H28.2203V28.1175H29.7458ZM43.4746 22.0158H45V20.4904H43.4746V22.0158ZM23.6441 28.1175V26.5921H22.1186V28.1175H23.6441ZM26.6949 28.1175V26.5921H25.1695V28.1175H26.6949ZM43.4746 18.965H45V17.4395H43.4746V18.965Z" fill="#505050"/>
</svg>
