<svg width="45" height="45" viewBox="0 0 45 45" fill="none" xmlns="http://www.w3.org/2000/svg">
<path d="M14.8699 13.6558H13.3449V17.4646H14.8699V13.6558ZM1.89966 26.6261H5.70838V25.0994H1.89966V26.6261ZM3.977 16.8107L7.10649 19.9402L8.18563 18.8611L5.05613 15.7332L3.977 16.8107ZM39.9138 26.3024C39.2051 25.1525 38.2505 24.1738 37.1187 23.4365C35.9869 22.6993 34.7058 22.2217 33.3676 22.0382L28.6067 21.3828V19.1198C29.965 18.5255 31.121 17.5489 31.934 16.3091C32.7469 15.0693 33.1816 13.6197 33.1851 12.1371V8.3284C33.1859 7.42546 33.0089 6.5312 32.6641 5.6967C32.3193 4.86219 31.8134 4.10379 31.1755 3.4648C30.5375 2.82581 29.7799 2.31876 28.946 1.97259C28.112 1.62643 27.2181 1.44794 26.3151 1.44731H22.5064C19.7816 1.44731 18.4041 0.47609 18.4041 0.461807L17.7884 0L17.3281 0.612569C16.7467 1.44632 16.4228 2.43237 16.3966 3.44848C16.3858 4.04133 16.5196 4.62788 16.7865 5.15739C17.0533 5.68691 17.4451 6.14345 17.928 6.48752V12.1292C17.9299 13.6131 18.3639 15.0644 19.177 16.3058C19.99 17.5472 21.1469 18.525 22.5064 19.1198V21.451L19.7863 22.1302C17.5789 22.6793 17.4932 22.7015 17.1187 22.8269C15.4568 23.3959 14.0336 24.5056 13.0767 25.9786L14.3462 26.8229C15.1127 25.6319 16.26 24.7358 17.6011 24.2806C17.9185 24.1774 17.9582 24.1647 20.1402 23.6188L22.7381 22.9713C23.1999 23.787 24.2679 24.3441 25.5439 24.3441C26.8547 24.3441 27.9449 23.7537 28.3845 22.9015L33.1454 23.5585C34.2614 23.7113 35.3297 24.1092 36.2735 24.7239C37.2174 25.3385 38.0135 26.1545 38.6046 27.1133C39.9535 29.2922 41.5611 32.7629 41.5611 36.9334C41.5611 37.4385 41.3605 37.9229 41.0033 38.28C40.6462 38.6372 40.1618 38.8378 39.6567 38.8378C39.5721 38.8336 39.4878 38.824 39.4044 38.8092L28.3829 37.2873C28.2712 37.2715 28.1615 37.2433 28.056 37.2032L27.234 35.091C27.3564 34.8453 27.5437 34.6378 27.7756 34.4909C28.0075 34.3441 28.2751 34.2635 28.5496 34.2578C28.7622 34.2721 35.0847 34.7831 38.3888 35.0513L38.5125 33.5294L35.4529 33.2818V30.4396H33.9262V33.1549L30.465 32.874L32.6217 27.8322L31.2188 27.2323L28.859 32.747C28.6321 32.7296 28.6194 32.7296 28.6083 32.7296C27.8784 32.7284 27.1722 32.9891 26.6182 33.4643L24.5219 28.0893L21.4193 28.4718L20.8528 27.0133L12.5514 27.9306L13.1449 29.4604L9.98049 29.7778L10.7533 31.7679C9.94428 34.6892 9.53272 37.7062 9.52979 40.7374C9.53063 41.6475 9.89255 42.5201 10.5361 43.1637C11.1797 43.8073 12.0523 44.1692 12.9624 44.17C13.3455 44.1675 13.7255 44.0999 14.086 43.9701L15.3301 43.5336L15.8983 44.9968L30.4349 43.2861L28.7194 38.8664L33.9484 39.5884V44.9365H35.4751V39.7995L39.2711 40.3248C39.4035 40.3448 39.5371 40.3559 39.671 40.3581C40.5813 40.3573 41.4541 39.9954 42.0979 39.3519C42.7417 38.7084 43.104 37.8358 43.1052 36.9255C43.1005 32.3963 41.3675 28.6479 39.9138 26.3024ZM27.0769 22.0477C27.0769 22.3651 26.4833 22.811 25.5518 22.811C24.6202 22.811 24.0251 22.3588 24.0251 22.0477V19.6054C25.032 19.8106 26.07 19.8106 27.0769 19.6054V22.0477ZM25.5518 18.239C23.9336 18.2373 22.3821 17.5937 21.2378 16.4495C20.0936 15.3052 19.45 13.7538 19.4483 12.1355V7.23339C20.191 7.45271 20.9624 7.55969 21.7367 7.55078V6.03047C20.8417 6.03047 17.928 5.84479 17.928 3.45324C17.9365 2.99023 18.0413 2.53407 18.2359 2.11384C19.0294 2.48995 20.4576 2.97873 22.5064 2.97873H26.3151C27.7301 2.98041 29.0867 3.54292 30.0876 4.54299C31.0886 5.54307 31.6523 6.89916 31.6553 8.31411V12.1228C31.6553 13.7433 31.0116 15.2973 29.8657 16.4431C28.7199 17.5889 27.1659 18.2326 25.5454 18.2326L25.5518 18.239ZM19.8467 28.6654L20.4132 30.127L15.2571 30.6983L14.6906 29.2367L19.8467 28.6654ZM13.5845 42.5307C13.3851 42.604 13.1748 42.6431 12.9624 42.6465C12.4573 42.6465 11.9729 42.4459 11.6158 42.0888C11.2587 41.7316 11.058 41.2472 11.058 40.7422C11.0596 38.5647 11.2835 36.393 11.7261 34.261L12.1277 35.2957L13.4242 38.6283L21.359 36.5986C21.4837 36.5642 21.6122 36.5455 21.7415 36.5431C22.1019 36.5413 22.4513 36.6676 22.7272 36.8996C23.0031 37.1315 23.1876 37.4539 23.2479 37.8092C23.3081 38.1646 23.2401 38.5298 23.0561 38.8397C22.872 39.1496 22.5838 39.384 22.243 39.5012L13.5845 42.5307ZM16.8933 43.3448L16.7711 43.0274L22.7429 40.9437C23.4959 40.6937 24.1215 40.1594 24.4862 39.4546C24.8509 38.7499 24.9258 37.9306 24.695 37.1714C24.4642 36.4123 23.9458 35.7733 23.2506 35.3909C22.5553 35.0084 21.7382 34.9128 20.9734 35.1243L14.3526 36.8176L13.8432 35.5068L12.1308 31.1045L13.7178 30.9458L14.2605 32.3439L22.554 31.4219L21.9795 29.9429L23.53 29.7477L28.2909 42.0086L16.8933 43.3448Z" fill="#505050"/>
</svg>
