<svg width="45" height="46" viewBox="0 0 45 46" fill="none" xmlns="http://www.w3.org/2000/svg">
<path d="M11.6646 22.0042L11.2453 20.5447L9.98436 20.9135L10.4036 22.3731L11.6646 22.0042ZM8.30415 21.4037L4.66789 22.4582L5.09031 23.913L8.72499 22.8585L8.30415 21.4037ZM10.6968 34.051L15.7406 36.0291L16.2938 34.6105L11.25 32.6324L10.6968 34.051ZM26.7392 35.8573V35.479C26.7405 34.8817 26.5397 34.3015 26.1694 33.8327C25.7991 33.364 25.2811 33.0344 24.6997 32.8974C24.1183 32.7604 23.5076 32.8241 22.967 33.0782C22.4264 33.3323 21.9877 33.7618 21.7222 34.2969L21.3581 35.0219C21.2325 35.2734 21.0393 35.4848 20.8001 35.6324C20.5609 35.78 20.2852 35.8579 20.0041 35.8573H19.1625V37.3736H20.0041C20.5666 37.3755 21.1184 37.2198 21.597 36.9243C22.0756 36.6287 22.4618 36.205 22.712 35.7013L23.0761 34.9746C23.1888 34.7443 23.3763 34.559 23.608 34.4492C23.8397 34.3393 24.1018 34.3114 24.3515 34.37C24.6011 34.4286 24.8234 34.5703 24.982 34.7718C25.1406 34.9732 25.2261 35.2226 25.2245 35.479V35.8573C25.2249 36.4601 25.4644 37.0381 25.8905 37.4645C26.3166 37.8909 26.8945 38.1309 27.4973 38.1317H29.0136V36.6217H27.4973C27.3974 36.6215 27.2984 36.6016 27.2062 36.563C27.114 36.5244 27.0303 36.468 26.96 36.3969C26.8897 36.3259 26.8341 36.2416 26.7965 36.149C26.7589 36.0564 26.7399 35.9572 26.7407 35.8573H26.7392ZM37.5975 9.68006L37.9978 8.67445C38.0726 8.48969 38.1101 8.29196 38.1081 8.09265C38.1062 7.89333 38.0648 7.69638 37.9865 7.51311C37.9081 7.32985 37.7942 7.16389 37.6515 7.0248C37.5087 6.88571 37.3398 6.77622 37.1546 6.70265L33.988 5.48111L34.1015 5.15484C34.2553 4.78306 34.3334 4.38438 34.3314 3.98207C34.3294 3.57976 34.2473 3.18189 34.0898 2.81166C33.9324 2.44143 33.7028 2.10627 33.4144 1.82574C33.126 1.54521 32.7847 1.32493 32.4102 1.17776C32.0358 1.03058 31.6358 0.959462 31.2336 0.968546C30.8314 0.97763 30.435 1.06674 30.0676 1.23067C29.7002 1.39459 29.3692 1.63006 29.0937 1.92332C28.8183 2.21659 28.6041 2.56177 28.4635 2.93873L28.3358 3.30283L24.6098 1.86535C24.236 1.72471 23.8224 1.73412 23.4554 1.8916C23.0885 2.04907 22.7967 2.34241 22.6411 2.71018L22.2502 3.69057L16.6264 1.49495L12.1374 13.5291L13.556 14.0587L17.5106 3.46517L21.6875 5.0981L21.5472 5.44801C21.474 5.62654 21.4365 5.81773 21.4369 6.01071C21.4354 6.31654 21.5264 6.61568 21.698 6.86884C21.8696 7.12201 22.1137 7.31737 22.3984 7.42927L34.9353 12.2634C35.12 12.3374 35.3175 12.3743 35.5165 12.3719C35.7155 12.3695 35.912 12.3278 36.0949 12.2494C36.2778 12.1709 36.4433 12.0571 36.5822 11.9146C36.721 11.772 36.8304 11.6035 36.904 11.4186L37.0411 11.0876L41.3299 12.7631L39.4385 17.8069C39.2304 18.2041 36.6313 22.972 32.0462 22.972C30.6399 22.9703 29.2916 22.4111 28.2971 21.4168C27.3025 20.4225 26.7428 19.0745 26.7407 17.6681V12.1153L1.73462 19.3752V22.827C1.73462 25.516 3.48576 28.3941 6.3812 28.9426L3.90975 35.5625L30.5283 46L43.2654 11.8946L37.5975 9.68006ZM35.4886 10.848L22.9532 6.01228L24.0565 3.27603L29.2579 5.28093L29.8884 3.4699C30.0186 3.14242 30.2589 2.87059 30.568 2.70123C30.877 2.53186 31.2355 2.47556 31.5816 2.54201C31.9276 2.60847 32.2397 2.79352 32.4641 3.06531C32.6884 3.3371 32.811 3.67861 32.8106 4.03102C32.8083 4.23516 32.7665 4.43693 32.6877 4.62524L32.0761 6.3685L36.5919 8.1023L35.4886 10.848ZM3.25091 22.827V20.5132L25.2197 14.1343V17.6713C25.2207 18.9025 25.5546 20.1105 26.1862 21.1674C26.8177 22.2244 27.7233 23.0908 28.8071 23.675L8.05669 27.4578C7.83416 27.4988 7.60835 27.5194 7.38208 27.5193C4.83182 27.5224 3.25091 25.0857 3.25091 22.827ZM29.6488 44.0298L5.84845 34.6972L7.9763 29.0041C8.09609 28.9899 8.21588 28.9741 8.33409 28.952L33.4868 24.3622C35.0797 24.0558 36.5616 23.3287 37.7788 22.2564L29.6488 44.0298Z" fill="#505050"/>
</svg>
