<svg width="175" height="111" viewBox="0 0 175 111" fill="none" xmlns="http://www.w3.org/2000/svg">
<path d="M95.8714 114.608V65.8206C96.406 56.0277 100.212 46.6977 106.68 39.3252L141.319 3.8229C147.248 -2.25677 150.363 -0.492916 148.262 7.57579L141.131 35.2346C140.494 37.0135 140.315 38.9242 140.61 40.7906C140.905 42.657 141.665 44.4191 142.82 45.9145C143.976 47.4099 145.489 48.5905 147.22 49.3475C148.951 50.1045 150.845 50.4135 152.728 50.2461H163.236C167.333 50.256 171.26 51.8882 174.158 54.7857C177.056 57.6833 178.688 61.6103 178.698 65.708V114.496C178.688 118.593 177.056 122.52 174.158 125.418C171.26 128.315 167.333 129.948 163.236 129.957H111.333C107.255 129.948 103.345 128.331 100.451 125.458C97.5562 122.585 95.9109 118.686 95.8714 114.608ZM18.2617 130.07H70.1266C74.2243 130.06 78.1514 128.428 81.0489 125.53C83.9464 122.633 85.5786 118.706 85.5885 114.608V65.8206C85.5786 61.7229 83.9464 57.7959 81.0489 54.8983C78.1514 52.0008 74.2243 50.3686 70.1266 50.3587H59.6186C57.7364 50.5261 55.8423 50.2171 54.1109 49.4601C52.3795 48.7031 50.8666 47.5225 49.7114 46.0271C48.5562 44.5317 47.7959 42.7696 47.5007 40.9032C47.2055 39.0368 47.3848 37.1261 48.0221 35.3472L55.3403 7.57579C57.4419 -0.643032 54.327 -2.40689 48.3974 3.8229L13.6082 39.1751C7.14042 46.5476 3.3344 55.8776 2.79985 65.6705V114.458C2.78501 116.5 3.17372 118.524 3.94365 120.415C4.71357 122.306 5.84954 124.027 7.2863 125.477C8.72305 126.928 10.4323 128.081 12.3158 128.869C14.1993 129.657 16.22 130.065 18.2617 130.07Z" fill="#F0F0F0"/>
</svg>
