<svg width="71" height="71" viewBox="0 0 71 71" fill="none" xmlns="http://www.w3.org/2000/svg">
<g clip-path="url(#clip0_68_743)">
<g clip-path="url(#clip1_68_743)">
<path d="M35.6839 0.535465C15.529 0.191125 -1.09022 16.2511 -1.43456 36.406C-1.63015 47.834 3.46332 58.1049 11.5732 64.9352C12.1035 64.4724 12.6723 64.0482 13.3046 63.7039L24.1953 57.7633C25.6236 56.9837 26.5134 55.4866 26.5134 53.8585V49.3959C26.5134 49.3959 23.3166 45.5723 22.0976 40.2599C21.0866 39.6056 20.409 38.4748 20.409 37.187V32.3029C20.409 31.2285 20.8869 30.2685 21.6293 29.5964V22.536C21.6293 22.536 20.1789 11.5488 35.0586 11.5488C49.9382 11.5488 48.4878 22.536 48.4878 22.536V29.5964C49.2316 30.2685 49.7081 31.2285 49.7081 32.3029V37.187C49.7081 38.8288 48.6063 40.2103 47.1104 40.6717C46.2771 43.2625 45.0747 45.7321 43.4852 47.9772C43.0844 48.5433 42.7098 49.0226 42.382 49.3959V53.9715C42.382 55.656 43.3337 57.1972 44.8406 57.9493L56.5027 63.7796C57.2023 64.1295 57.8346 64.5716 58.4172 65.0633C66.2819 58.5043 71.363 48.6976 71.5517 37.6539C71.8988 17.499 55.8401 0.879804 35.6839 0.535465Z" fill="#F0F0F0"/>
</g>
</g>
<defs>
<clipPath id="clip0_68_743">
<rect x="0.0599976" y="0.530029" width="70" height="70" rx="35" fill="white"/>
</clipPath>
<clipPath id="clip1_68_743">
<rect width="73" height="73" fill="white" transform="translate(-1.44 0.530029)"/>
</clipPath>
</defs>
</svg>
